<?xml version="1.0" encoding="utf-8"?>
<!-- Generator: Adobe Illustrator 24.1.3, SVG Export Plug-In . SVG Version: 6.00 Build 0)  -->
<svg version="1.1" id="Layer_1" xmlns="http://www.w3.org/2000/svg" xmlns:xlink="http://www.w3.org/1999/xlink" x="0px" y="0px"
	 viewBox="0 0 321.1 162" style="enable-background:new 0 0 321.1 162;" xml:space="preserve">
<style type="text/css">
	.st0{fill:#3B4145;}
	.st1{fill:#F08825;}
</style>
<g>
	<g>
		<path class="st0" d="M19.1,122.2c1,1.3,1.5,3,1.5,5c0,2.6-0.8,4.7-2.5,6.2c-1.7,1.5-4,2.3-6.9,2.3H0v-29.5h9.3
			c2.7,0,4.8,0.6,6.3,1.8c1.5,1.2,2.2,3,2.2,5.4c0,1.4-0.3,2.7-0.8,3.8c-0.5,1.1-1.3,1.9-2.2,2.5C16.6,120.1,18.1,121,19.1,122.2z
			 M4,118.5h4.8c1.6,0,2.8-0.3,3.6-0.9c0.8-0.6,1.2-1.8,1.2-3.4c0-1.6-0.4-2.8-1.2-3.4c-0.8-0.6-2-0.9-3.6-0.9H4V118.5z M14.7,130.8
			c1-0.8,1.4-2.1,1.4-3.7c0-3.4-1.8-5.1-5.4-5.1H4v10h6.8C12.4,132.1,13.8,131.7,14.7,130.8z"/>
		<path class="st0" d="M36.1,134.4c-2.2-1.3-3.9-3.1-5.2-5.4c-1.2-2.3-1.9-5-1.9-8.1c0-3.1,0.6-5.8,1.9-8.1c1.2-2.3,3-4.1,5.2-5.4
			c2.2-1.3,4.7-1.9,7.5-1.9c2.8,0,5.3,0.6,7.5,1.9c2.2,1.3,3.9,3.1,5.2,5.4c1.2,2.3,1.9,5,1.9,8.1c0,3.1-0.6,5.8-1.9,8.1
			c-1.2,2.3-3,4.1-5.2,5.4c-2.2,1.3-4.7,1.9-7.5,1.9C40.9,136.3,38.3,135.7,36.1,134.4z M49.3,130.9c1.5-1,2.7-2.4,3.5-4.1
			c0.8-1.7,1.2-3.7,1.2-5.9c0-2.2-0.4-4.2-1.2-5.9c-0.8-1.7-1.9-3.1-3.5-4.1c-1.5-1-3.4-1.5-5.6-1.5c-2.2,0-4.1,0.5-5.6,1.5
			c-1.5,1-2.7,2.4-3.5,4.1c-0.8,1.7-1.2,3.7-1.2,5.9c0,2.2,0.4,4.2,1.2,5.9c0.8,1.7,1.9,3.1,3.5,4.1c1.5,1,3.4,1.5,5.6,1.5
			C45.9,132.4,47.7,131.9,49.3,130.9z"/>
		<path class="st0" d="M88,122.2c1,1.3,1.5,3,1.5,5c0,2.6-0.8,4.7-2.5,6.2c-1.7,1.5-4,2.3-6.9,2.3H68.9v-29.5h9.3
			c2.7,0,4.8,0.6,6.3,1.8c1.5,1.2,2.2,3,2.2,5.4c0,1.4-0.3,2.7-0.8,3.8c-0.5,1.1-1.3,1.9-2.2,2.5C85.6,120.1,87,121,88,122.2z
			 M72.9,118.5h4.8c1.6,0,2.8-0.3,3.6-0.9c0.8-0.6,1.2-1.8,1.2-3.4c0-1.6-0.4-2.8-1.2-3.4c-0.8-0.6-2-0.9-3.6-0.9h-4.8V118.5z
			 M83.6,130.8c1-0.8,1.4-2.1,1.4-3.7c0-3.4-1.8-5.1-5.4-5.1h-6.8v10h6.8C81.4,132.1,82.7,131.7,83.6,130.8z"/>
		<path class="st0" d="M115,127.7h-11.3l-2.8,8h-4.2l10.6-29.5h4.2l10.6,29.5h-4.2L115,127.7z M113.7,124.1l-4.4-12.3l-4.4,12.3
			H113.7z"/>
		<path class="st0" d="M149.6,135.7c-1.8-0.4-3.2-0.8-4.3-1.3l0.5-4.3c1.4,0.7,3,1.3,4.8,1.8c1.8,0.5,3.5,0.8,5.3,0.8
			c2,0,3.5-0.4,4.6-1.1c1.1-0.7,1.6-1.8,1.6-3.2c0-1.1-0.3-2-0.8-2.7c-0.5-0.7-1.3-1.3-2.4-1.8c-1.1-0.5-2.5-1-4.4-1.6
			c-1.9-0.6-3.5-1.2-4.8-1.8c-1.3-0.6-2.3-1.5-3.1-2.7c-0.8-1.1-1.2-2.5-1.2-4.3c0-2.4,0.9-4.3,2.8-5.8c1.8-1.5,4.4-2.2,7.8-2.2
			c1.8,0,3.5,0.2,5.1,0.6c1.6,0.4,3,0.9,4.2,1.4l-0.4,4.3c-1.6-0.9-3.1-1.6-4.6-2c-1.5-0.4-3-0.6-4.6-0.6c-1.8,0-3.3,0.3-4.4,1
			c-1.1,0.7-1.6,1.7-1.6,3.1c0,1,0.2,1.7,0.7,2.4c0.5,0.6,1.2,1.1,2.1,1.6c0.9,0.4,2.2,0.9,3.9,1.4c3.3,1,5.8,2.2,7.4,3.6
			c1.6,1.4,2.4,3.3,2.4,5.8c0,2.6-1,4.6-2.9,6c-1.9,1.4-4.8,2.2-8.6,2.2C153.1,136.3,151.4,136.1,149.6,135.7z"/>
		<path class="st0" d="M182.6,109.8H174v-3.6h21.2v3.6h-8.6v25.9h-4V109.8z"/>
		<path class="st0" d="M207.5,132.9c-2-2.3-3.1-5.5-3.1-9.7v-17h4v15.9c0,3.2,0.6,5.8,1.7,7.7c1.2,1.9,3.3,2.9,6.5,2.9
			c3.2,0,5.3-1,6.5-2.9c1.2-1.9,1.7-4.5,1.7-7.7v-15.9h4v17c0,4.2-1,7.4-3.1,9.7c-2,2.3-5.1,3.4-9.2,3.4
			C212.6,136.3,209.6,135.1,207.5,132.9z"/>
		<path class="st0" d="M241,106.2h10.9c2.9,0,5.4,0.6,7.6,1.7c2.2,1.2,3.9,2.9,5.2,5.1c1.2,2.2,1.9,4.9,1.9,7.9s-0.6,5.7-1.9,7.9
			c-1.2,2.2-3,3.9-5.2,5.1c-2.2,1.2-4.8,1.7-7.6,1.7H241V106.2z M251.9,132.1c3.3,0,5.8-1,7.6-3c1.8-2,2.7-4.7,2.7-8.1
			c0-3.4-0.9-6.1-2.7-8.1c-1.8-2-4.3-3-7.6-3H245v22.3H251.9z"/>
		<path class="st0" d="M277.3,106.2h4v29.5h-4V106.2z"/>
		<path class="st0" d="M299,134.4c-2.2-1.3-3.9-3.1-5.2-5.4c-1.2-2.3-1.9-5-1.9-8.1c0-3.1,0.6-5.8,1.9-8.1c1.2-2.3,3-4.1,5.2-5.4
			c2.2-1.3,4.7-1.9,7.5-1.9c2.8,0,5.3,0.6,7.5,1.9c2.2,1.3,3.9,3.1,5.2,5.4c1.2,2.3,1.9,5,1.9,8.1c0,3.1-0.6,5.8-1.9,8.1
			c-1.2,2.3-3,4.1-5.2,5.4c-2.2,1.3-4.7,1.9-7.5,1.9C303.7,136.3,301.2,135.7,299,134.4z M312.1,130.9c1.5-1,2.7-2.4,3.5-4.1
			c0.8-1.7,1.2-3.7,1.2-5.9c0-2.2-0.4-4.2-1.2-5.9c-0.8-1.7-1.9-3.1-3.5-4.1c-1.5-1-3.4-1.5-5.6-1.5c-2.2,0-4.1,0.5-5.6,1.5
			c-1.5,1-2.7,2.4-3.5,4.1c-0.8,1.7-1.2,3.7-1.2,5.9c0,2.2,0.4,4.2,1.2,5.9c0.8,1.7,1.9,3.1,3.5,4.1c1.5,1,3.4,1.5,5.6,1.5
			C308.7,132.4,310.6,131.9,312.1,130.9z"/>
	</g>
	<g>
		<path class="st0" d="M182.8,66.1c-0.6,0-1.1-0.1-1.3-0.3c-0.3-0.2-0.4-0.5-0.5-1c-0.1-0.5-0.1-1.3-0.1-2.4v-5.2
			c0-3.2-0.6-5.5-1.9-6.9c-1.2-1.4-3.1-2.1-5.6-2.1c-2.6,0-5.1,0.6-7.5,1.9l0.5,3.8c1.1-0.6,2.1-1,3-1.3c0.9-0.3,1.8-0.4,2.7-0.4
			c1.4,0,2.5,0.3,3.1,0.9c0.6,0.6,0.9,1.6,1,3.1c-1.8,0.1-3.6,0.3-5.4,0.8c-1.8,0.5-3.4,1.2-4.7,2.3c-1.3,1.1-1.9,2.6-1.9,4.4
			c0,1.9,0.6,3.3,1.7,4.5c1.2,1.1,2.6,1.7,4.4,1.7c1.3,0,2.5-0.2,3.6-0.7c1.1-0.5,2-1.1,2.8-1.9c0.4,0.9,1,1.5,1.8,2
			c0.7,0.4,1.8,0.7,3.1,0.7h1.3l0.5-3.8H182.8z M176,64.3c-0.5,0.6-1.2,1.1-2,1.5c-0.8,0.4-1.5,0.5-2.2,0.5c-2,0-3-0.9-3-2.7
			c0-1.3,0.7-2.3,2-2.9c1.3-0.7,3-1.1,5.2-1.1V64.3z"/>
		<path class="st0" d="M157,53.7c-0.7-1.6-1.8-3-3.2-3.9c-1.4-1-3.1-1.5-5.1-1.5c-2.2,0-4.2,0.7-6,2.2v-9.1H138v28.2h4.3l0.2-1.8
			c1.6,1.5,3.7,2.2,6.1,2.2c1.9,0,3.6-0.5,5-1.5c1.4-1,2.5-2.3,3.3-3.9c0.8-1.7,1.2-3.5,1.2-5.5C158.2,57.2,157.8,55.4,157,53.7z
			 M151.9,64.1c-0.9,1.3-2.2,1.9-3.8,1.9c-1.8,0-3.1-0.6-4.1-1.8c-1-1.2-1.5-2.9-1.5-5.1c0-2.2,0.5-3.8,1.5-5.1
			c1-1.2,2.4-1.8,4.1-1.8c1.6,0,2.9,0.6,3.8,1.9c0.9,1.3,1.4,2.9,1.4,5C153.3,61.2,152.8,62.8,151.9,64.1z"/>
		<path class="st0" d="M153.8,21.8c1-0.6,1.8-1.5,2.4-2.5c0.5-1.1,0.8-2.3,0.8-3.7c0-2.4-0.7-4.1-2.1-5.3c-1.4-1.2-3.5-1.8-6.3-1.8
			h-10.4v29.5h11.9c2.9,0,5.3-0.7,7-2.2c1.7-1.5,2.5-3.5,2.5-6.1C159.4,25.5,157.6,22.9,153.8,21.8z M142.9,12.8h4.9
			c1.4,0,2.5,0.3,3.2,0.9c0.7,0.6,1.1,1.5,1.1,2.9c0,1.3-0.4,2.3-1.1,2.9c-0.7,0.6-1.8,0.9-3.2,0.9h-4.9V12.8z M149.3,33.5h-6.4
			v-8.9h6.4c1.6,0,2.8,0.3,3.7,1c0.9,0.7,1.3,1.8,1.3,3.4C154.3,32.1,152.6,33.5,149.3,33.5z"/>
		<path class="st1" d="M178.7,9.8c-1.5-0.9-3.3-1.4-5.4-1.4c-2.1,0-3.8,0.5-5.4,1.4c-1.5,0.9-2.7,2.2-3.5,3.7
			c-0.8,1.6-1.2,3.3-1.2,5.2c0,1.9,0.4,3.6,1.2,5.2c0.8,1.6,2,2.8,3.5,3.7c1.5,0.9,3.3,1.4,5.4,1.4c2.1,0,3.9-0.5,5.4-1.4
			c1.5-0.9,2.7-2.2,3.5-3.7c0.8-1.6,1.2-3.3,1.2-5.2c0-1.9-0.4-3.6-1.2-5.2C181.4,11.9,180.2,10.7,178.7,9.8z"/>
		<rect x="167.5" y="35.5" class="st0" width="11.5" height="6.5"/>
		<g>
			<path class="st0" d="M191.8,78.1h-62.2l0-78.1h62.2L191.8,78.1z M133.9,73.8h53.7l0-69.5h-53.7L133.9,73.8z"/>
		</g>
	</g>
	<g>
		<path class="st0" d="M5.7,157.9c0.3,0.4,0.4,0.9,0.4,1.5c0,0.8-0.2,1.4-0.7,1.8c-0.5,0.4-1.2,0.7-2,0.7H0.1v-8.6h2.7
			c0.8,0,1.4,0.2,1.8,0.5c0.4,0.4,0.6,0.9,0.6,1.6c0,0.4-0.1,0.8-0.2,1.1c-0.1,0.3-0.4,0.6-0.7,0.7C5,157.3,5.4,157.5,5.7,157.9z
			 M1.3,156.8h1.4c0.5,0,0.8-0.1,1-0.3c0.2-0.2,0.4-0.5,0.4-1c0-0.5-0.1-0.8-0.4-1c-0.2-0.2-0.6-0.3-1-0.3H1.3V156.8z M4.4,160.4
			c0.3-0.2,0.4-0.6,0.4-1.1c0-1-0.5-1.5-1.6-1.5h-2v2.9h2C3.8,160.8,4.1,160.7,4.4,160.4z"/>
		<path class="st0" d="M9.3,153.2h2.8c0.9,0,1.7,0.2,2.2,0.6c0.5,0.4,0.8,1.1,0.8,2c0,1.1-0.5,2-1.5,2.4l1.9,3.6h-1.4l-1.7-3.4h-0.1
			h-1.7v3.4H9.3V153.2z M12.1,157.4c0.6,0,1-0.1,1.3-0.4c0.3-0.3,0.5-0.7,0.5-1.2c0-0.5-0.1-0.9-0.4-1.2c-0.3-0.3-0.7-0.4-1.3-0.4
			h-1.5v3.2H12.1z"/>
		<path class="st0" d="M23,159.5h-3.3l-0.8,2.3h-1.2l3.1-8.6H22l3.1,8.6h-1.2L23,159.5z M22.6,158.5l-1.3-3.6l-1.3,3.6H22.6z"/>
		<path class="st0" d="M27.9,153.2h1.3l4.2,6.4v-6.4h1.2v8.6h-1l-4.5-6.8v6.8h-1.2V153.2z"/>
		<path class="st0" d="M38.4,153.2h3.2c0.8,0,1.6,0.2,2.2,0.5c0.6,0.3,1.1,0.8,1.5,1.5c0.4,0.7,0.5,1.4,0.5,2.3s-0.2,1.7-0.5,2.3
			c-0.4,0.7-0.9,1.1-1.5,1.5c-0.6,0.3-1.4,0.5-2.2,0.5h-3.2V153.2z M41.6,160.8c1,0,1.7-0.3,2.2-0.9c0.5-0.6,0.8-1.4,0.8-2.4
			s-0.3-1.8-0.8-2.4s-1.3-0.9-2.2-0.9h-2v6.5H41.6z"/>
		<path class="st0" d="M49.2,153.2h1.2v8.6h-1.2V153.2z"/>
		<path class="st0" d="M54.1,153.2h1.3l4.2,6.4v-6.4h1.2v8.6h-1l-4.5-6.8v6.8h-1.2V153.2z"/>
		<path class="st0" d="M66.2,161.4c-0.6-0.4-1.1-0.9-1.5-1.6c-0.4-0.7-0.6-1.5-0.6-2.4s0.2-1.7,0.6-2.3s0.9-1.2,1.6-1.6
			c0.7-0.4,1.4-0.6,2.3-0.6c0.4,0,0.9,0,1.3,0.1c0.4,0.1,0.8,0.2,1.1,0.4l-0.1,1c-0.8-0.3-1.6-0.5-2.3-0.5c-0.7,0-1.3,0.1-1.8,0.4
			s-0.8,0.7-1.1,1.2c-0.2,0.5-0.3,1.1-0.3,1.7c0,1,0.3,1.9,0.8,2.5c0.6,0.6,1.4,0.9,2.4,0.9c0.2,0,0.5,0,0.7-0.1
			c0.3,0,0.5-0.1,0.7-0.2v-2.1h-1.3v-1.1h2.5v3.8c-0.4,0.2-0.8,0.4-1.3,0.5c-0.5,0.1-1,0.2-1.6,0.2C67.5,162,66.8,161.8,66.2,161.4z
			"/>
	</g>
	<g>
		<path class="st1" d="M83.9,158.1c-0.3-0.3-0.4-0.6-0.4-0.9c0-0.4,0.1-0.7,0.4-0.9c0.3-0.3,0.6-0.4,0.9-0.4c0.4,0,0.7,0.1,0.9,0.4
			c0.3,0.3,0.4,0.6,0.4,0.9c0,0.4-0.1,0.7-0.4,0.9c-0.3,0.3-0.6,0.4-0.9,0.4C84.5,158.5,84.1,158.4,83.9,158.1z"/>
	</g>
	<g>
		<path class="st0" d="M100.3,161.4c-0.7-0.4-1.2-0.9-1.5-1.6c-0.4-0.7-0.6-1.5-0.6-2.4s0.2-1.7,0.6-2.4c0.4-0.7,0.9-1.2,1.6-1.6
			c0.7-0.4,1.4-0.6,2.3-0.6c0.4,0,0.8,0,1.2,0.1c0.4,0.1,0.8,0.2,1.1,0.4l-0.1,1.1c-0.7-0.4-1.5-0.5-2.2-0.5c-0.7,0-1.2,0.1-1.7,0.4
			c-0.5,0.3-0.8,0.7-1.1,1.2c-0.2,0.5-0.4,1.1-0.4,1.7s0.1,1.2,0.4,1.7c0.2,0.5,0.6,0.9,1,1.2c0.5,0.3,1,0.4,1.7,0.4
			c0.8,0,1.5-0.2,2.2-0.5l0.1,1.1c-0.7,0.3-1.5,0.5-2.3,0.5C101.7,162,101,161.8,100.3,161.4z"/>
		<path class="st0" d="M108.1,153.2h2.8c0.9,0,1.7,0.2,2.2,0.6c0.5,0.4,0.8,1.1,0.8,2c0,1.1-0.5,2-1.5,2.4l1.9,3.6h-1.4l-1.7-3.4
			h-0.1h-1.7v3.4h-1.2V153.2z M110.9,157.4c0.6,0,1-0.1,1.3-0.4c0.3-0.3,0.5-0.7,0.5-1.2c0-0.5-0.1-0.9-0.4-1.2
			c-0.3-0.3-0.7-0.4-1.3-0.4h-1.5v3.2H110.9z"/>
		<path class="st0" d="M117.4,153.2h5.2v1.1h-4.1v2.5h3.2v1.1h-3.2v2.9h4.2v1.1h-5.4V153.2z"/>
		<path class="st0" d="M130.5,159.5h-3.3l-0.8,2.3h-1.2l3.1-8.6h1.2l3.1,8.6h-1.2L130.5,159.5z M130.1,158.5l-1.3-3.6l-1.3,3.6
			H130.1z"/>
		<path class="st0" d="M136.5,154.3H134v-1.1h6.2v1.1h-2.5v7.5h-1.2V154.3z"/>
		<path class="st0" d="M143.1,153.2h1.2v8.6h-1.2V153.2z"/>
		<path class="st0" d="M154.6,153.2l-3.1,8.6h-1.2l-3.1-8.6h1.2l2.5,7l2.5-7H154.6z"/>
		<path class="st0" d="M157.4,153.2h5.2v1.1h-4.1v2.5h3.2v1.1h-3.2v2.9h4.2v1.1h-5.4V153.2z"/>
	</g>
	<g>
		<path class="st1" d="M175.2,158.1c-0.3-0.3-0.4-0.6-0.4-0.9c0-0.4,0.1-0.7,0.4-0.9c0.3-0.3,0.6-0.4,0.9-0.4c0.4,0,0.7,0.1,0.9,0.4
			c0.3,0.3,0.4,0.6,0.4,0.9c0,0.4-0.1,0.7-0.4,0.9c-0.3,0.3-0.6,0.4-0.9,0.4C175.8,158.5,175.5,158.4,175.2,158.1z"/>
	</g>
	<g>
		<path class="st0" d="M190.1,153.2h3.2c0.8,0,1.6,0.2,2.2,0.5c0.6,0.3,1.1,0.8,1.5,1.5c0.4,0.7,0.5,1.4,0.5,2.3s-0.2,1.7-0.5,2.3
			c-0.4,0.7-0.9,1.1-1.5,1.5c-0.6,0.3-1.4,0.5-2.2,0.5h-3.2V153.2z M193.3,160.8c1,0,1.7-0.3,2.2-0.9c0.5-0.6,0.8-1.4,0.8-2.4
			s-0.3-1.8-0.8-2.4c-0.5-0.6-1.3-0.9-2.2-0.9h-2v6.5H193.3z"/>
		<path class="st0" d="M200.9,153.2h5.2v1.1H202v2.5h3.2v1.1H202v2.9h4.2v1.1h-5.4V153.2z"/>
		<path class="st0" d="M210.4,161.8c-0.5-0.1-0.9-0.2-1.3-0.4l0.2-1.2c0.4,0.2,0.9,0.4,1.4,0.5c0.5,0.1,1,0.2,1.5,0.2
			c0.6,0,1-0.1,1.3-0.3c0.3-0.2,0.5-0.5,0.5-0.9c0-0.3-0.1-0.6-0.2-0.8c-0.2-0.2-0.4-0.4-0.7-0.5c-0.3-0.1-0.7-0.3-1.3-0.5
			c-0.6-0.2-1-0.3-1.4-0.5c-0.4-0.2-0.7-0.4-0.9-0.8c-0.2-0.3-0.3-0.7-0.3-1.2c0-0.7,0.3-1.3,0.8-1.7c0.5-0.4,1.3-0.6,2.3-0.6
			c0.5,0,1,0.1,1.5,0.2c0.5,0.1,0.9,0.3,1.2,0.4l-0.1,1.2c-0.5-0.3-0.9-0.5-1.3-0.6c-0.4-0.1-0.9-0.2-1.3-0.2c-0.5,0-1,0.1-1.3,0.3
			c-0.3,0.2-0.5,0.5-0.5,0.9c0,0.3,0.1,0.5,0.2,0.7c0.1,0.2,0.3,0.3,0.6,0.5c0.3,0.1,0.6,0.3,1.1,0.4c1,0.3,1.7,0.6,2.2,1
			c0.5,0.4,0.7,1,0.7,1.7c0,0.8-0.3,1.3-0.8,1.8c-0.6,0.4-1.4,0.6-2.5,0.6C211.4,162,210.9,161.9,210.4,161.8z"/>
		<path class="st0" d="M218.5,153.2h1.2v8.6h-1.2V153.2z"/>
		<path class="st0" d="M225,161.4c-0.6-0.4-1.1-0.9-1.5-1.6c-0.4-0.7-0.6-1.5-0.6-2.4s0.2-1.7,0.6-2.3c0.4-0.7,0.9-1.2,1.6-1.6
			c0.7-0.4,1.4-0.6,2.3-0.6c0.4,0,0.9,0,1.3,0.1c0.4,0.1,0.8,0.2,1.1,0.4l-0.1,1c-0.8-0.3-1.6-0.5-2.3-0.5c-0.7,0-1.3,0.1-1.8,0.4
			c-0.5,0.3-0.8,0.7-1.1,1.2c-0.2,0.5-0.3,1.1-0.3,1.7c0,1,0.3,1.9,0.8,2.5c0.6,0.6,1.4,0.9,2.4,0.9c0.2,0,0.5,0,0.7-0.1
			c0.3,0,0.5-0.1,0.7-0.2v-2.1h-1.3v-1.1h2.5v3.8c-0.4,0.2-0.8,0.4-1.3,0.5c-0.5,0.1-1,0.2-1.6,0.2C226.4,162,225.7,161.8,225,161.4
			z"/>
		<path class="st0" d="M233.6,153.2h1.3l4.2,6.4v-6.4h1.2v8.6h-1l-4.5-6.8v6.8h-1.2V153.2z"/>
	</g>
	<g>
		<path class="st1" d="M253.2,158.1c-0.3-0.3-0.4-0.6-0.4-0.9c0-0.4,0.1-0.7,0.4-0.9c0.3-0.3,0.6-0.4,0.9-0.4c0.4,0,0.7,0.1,0.9,0.4
			c0.3,0.3,0.4,0.6,0.4,0.9c0,0.4-0.1,0.7-0.4,0.9c-0.3,0.3-0.6,0.4-0.9,0.4C253.8,158.5,253.5,158.4,253.2,158.1z"/>
	</g>
	<g>
		<path class="st0" d="M268.1,153.2h3.2c0.8,0,1.6,0.2,2.2,0.5c0.6,0.3,1.1,0.8,1.5,1.5c0.4,0.7,0.5,1.4,0.5,2.3s-0.2,1.7-0.5,2.3
			c-0.4,0.7-0.9,1.1-1.5,1.5c-0.6,0.3-1.4,0.5-2.2,0.5h-3.2V153.2z M271.2,160.8c1,0,1.7-0.3,2.2-0.9c0.5-0.6,0.8-1.4,0.8-2.4
			s-0.3-1.8-0.8-2.4c-0.5-0.6-1.3-0.9-2.2-0.9h-2v6.5H271.2z"/>
		<path class="st0" d="M278.8,153.2h1.2v8.6h-1.2V153.2z"/>
		<path class="st0" d="M285.3,161.4c-0.6-0.4-1.1-0.9-1.5-1.6c-0.4-0.7-0.6-1.5-0.6-2.4s0.2-1.7,0.6-2.3c0.4-0.7,0.9-1.2,1.6-1.6
			c0.7-0.4,1.4-0.6,2.3-0.6c0.4,0,0.9,0,1.3,0.1c0.4,0.1,0.8,0.2,1.1,0.4l-0.1,1c-0.8-0.3-1.6-0.5-2.3-0.5c-0.7,0-1.3,0.1-1.8,0.4
			s-0.8,0.7-1.1,1.2c-0.2,0.5-0.3,1.1-0.3,1.7c0,1,0.3,1.9,0.8,2.5c0.6,0.6,1.4,0.9,2.4,0.9c0.2,0,0.5,0,0.7-0.1
			c0.3,0,0.5-0.1,0.7-0.2v-2.1h-1.3v-1.1h2.5v3.8c-0.4,0.2-0.8,0.4-1.3,0.5c-0.5,0.1-1,0.2-1.6,0.2C286.7,162,286,161.8,285.3,161.4
			z"/>
		<path class="st0" d="M293.9,153.2h1.2v8.6h-1.2V153.2z"/>
		<path class="st0" d="M300.6,154.3H298v-1.1h6.2v1.1h-2.5v7.5h-1.2V154.3z"/>
		<path class="st0" d="M311,159.5h-3.3l-0.8,2.3h-1.2l3.1-8.6h1.2l3.1,8.6h-1.2L311,159.5z M310.6,158.5l-1.3-3.6l-1.3,3.6H310.6z"
			/>
		<path class="st0" d="M316,153.2h1.2v7.5h3.9v1.1H316V153.2z"/>
	</g>
</g>
</svg>
