<?xml version="1.0" encoding="utf-8"?>
<!-- Generator: Adobe Illustrator 24.1.3, SVG Export Plug-In . SVG Version: 6.00 Build 0)  -->
<svg version="1.1" id="Layer_1" xmlns="http://www.w3.org/2000/svg" xmlns:xlink="http://www.w3.org/1999/xlink" x="0px" y="0px"
	 viewBox="0 0 62.2 78.1" style="enable-background:new 0 0 62.2 78.1;" xml:space="preserve">
<style type="text/css">
	.st0{fill:#FFFFFF;}
	.st1{fill:#3B4145;}
	.st2{fill:#F08825;}
</style>
<rect x="1.7" y="2.3" class="st0" width="58.1" height="73.6"/>
<g>
	<path class="st1" d="M53.2,66.1c-0.6,0-1.1-0.1-1.3-0.3c-0.3-0.2-0.4-0.5-0.5-1c-0.1-0.5-0.1-1.3-0.1-2.4v-5.2
		c0-3.2-0.6-5.5-1.9-6.9c-1.2-1.4-3.1-2.1-5.6-2.1c-2.6,0-5.1,0.6-7.5,1.9l0.5,3.8c1.1-0.6,2.1-1,3-1.3c0.9-0.3,1.8-0.4,2.7-0.4
		c1.4,0,2.5,0.3,3.1,0.9c0.6,0.6,0.9,1.6,1,3.1c-1.8,0.1-3.6,0.3-5.4,0.8c-1.8,0.5-3.4,1.2-4.7,2.3c-1.3,1.1-1.9,2.6-1.9,4.4
		c0,1.9,0.6,3.3,1.7,4.5c1.2,1.1,2.6,1.7,4.4,1.7c1.3,0,2.5-0.2,3.6-0.7c1.1-0.5,2-1.1,2.8-1.9c0.4,0.9,1,1.5,1.8,2
		c0.7,0.4,1.8,0.7,3.1,0.7h1.3l0.5-3.8H53.2z M46.4,64.3c-0.5,0.6-1.2,1.1-2,1.5c-0.8,0.4-1.5,0.5-2.2,0.5c-2,0-3-0.9-3-2.7
		c0-1.3,0.7-2.3,2-2.9c1.3-0.7,3-1.1,5.2-1.1V64.3z"/>
	<path class="st1" d="M27.4,53.7c-0.7-1.6-1.8-3-3.2-3.9c-1.4-1-3.1-1.5-5.1-1.5c-2.2,0-4.2,0.7-6,2.2v-9.1H8.4v28.2h4.3l0.2-1.8
		c1.6,1.5,3.7,2.2,6.1,2.2c1.9,0,3.6-0.5,5-1.5c1.4-1,2.5-2.3,3.3-3.9c0.8-1.7,1.2-3.5,1.2-5.5C28.5,57.2,28.2,55.4,27.4,53.7z
		 M22.3,64.1c-0.9,1.3-2.2,1.9-3.8,1.9c-1.8,0-3.1-0.6-4.1-1.8c-1-1.2-1.5-2.9-1.5-5.1c0-2.2,0.5-3.8,1.5-5.1c1-1.2,2.4-1.8,4.1-1.8
		c1.6,0,2.9,0.6,3.8,1.9c0.9,1.3,1.4,2.9,1.4,5C23.7,61.2,23.2,62.8,22.3,64.1z"/>
	<path class="st1" d="M24.2,21.8c1-0.6,1.8-1.5,2.4-2.5c0.5-1.1,0.8-2.3,0.8-3.7c0-2.4-0.7-4.1-2.1-5.3c-1.4-1.2-3.5-1.8-6.3-1.8
		H8.4v29.5h11.9c2.9,0,5.3-0.7,7-2.2c1.7-1.5,2.5-3.5,2.5-6.1C29.8,25.5,27.9,22.9,24.2,21.8z M13.3,12.8h4.9c1.4,0,2.5,0.3,3.2,0.9
		c0.7,0.6,1.1,1.5,1.1,2.9c0,1.3-0.4,2.3-1.1,2.9c-0.7,0.6-1.8,0.9-3.2,0.9h-4.9V12.8z M19.7,33.5h-6.4v-8.9h6.4
		c1.6,0,2.8,0.3,3.7,1c0.9,0.7,1.3,1.8,1.3,3.4C24.7,32.1,23,33.5,19.7,33.5z"/>
	<path class="st2" d="M49.1,9.8c-1.5-0.9-3.3-1.4-5.4-1.4c-2.1,0-3.8,0.5-5.4,1.4s-2.7,2.2-3.5,3.7c-0.8,1.6-1.2,3.3-1.2,5.2
		c0,1.9,0.4,3.6,1.2,5.2c0.8,1.6,2,2.8,3.5,3.7c1.5,0.9,3.3,1.4,5.4,1.4c2.1,0,3.9-0.5,5.4-1.4c1.5-0.9,2.7-2.2,3.5-3.7
		c0.8-1.6,1.2-3.3,1.2-5.2c0-1.9-0.4-3.6-1.2-5.2C51.7,11.9,50.6,10.7,49.1,9.8z"/>
	<rect x="37.9" y="35.5" class="st1" width="11.5" height="6.5"/>
	<g>
		<path class="st1" d="M62.2,78.1H0L0,0h62.2L62.2,78.1z M4.3,73.8h53.7l0-69.5H4.3L4.3,73.8z"/>
	</g>
</g>
</svg>
